<?xml version="1.0" encoding="utf-8"?>
<svg xmlns="http://www.w3.org/2000/svg"
	xmlns:xlink="http://www.w3.org/1999/xlink"
	width="120px" height="40px" viewBox="0 0 120 40">
<path fillRule="evenodd" d="M 105 35C 96.72 35 90 28.28 90 20 90 11.72 96.72 5 105 5 113.28 5 120 11.72 120 20 120 28.28 113.28 35 105 35ZM 60 40C 48.95 40 40 31.05 40 20 40 8.95 48.95-0 60-0 71.05-0 80 8.95 80 20 80 31.05 71.05 40 60 40ZM 15 35C 6.72 35 0 28.28 0 20 0 11.72 6.72 5 15 5 23.28 5 30 11.72 30 20 30 28.28 23.28 35 15 35Z" fill="rgb(33,33,33)" opacity="0.20"/></svg>